<?xml version="1.0" standalone="no"?>
<!DOCTYPE svg PUBLIC "-//W3C//DTD SVG 20010904//EN"
 "http://www.w3.org/TR/2001/REC-SVG-20010904/DTD/svg10.dtd">
<svg version="1.0" xmlns="http://www.w3.org/2000/svg"
 width="246.000000pt" height="221.000000pt" viewBox="0 0 246.000000 221.000000"
 preserveAspectRatio="xMidYMid meet">

<g transform="translate(0.000000,221.000000) scale(0.100000,-0.100000)"
fill="#000000" stroke="none">
<path d="M1420 2022 c-33 -16 -45 -38 -66 -119 -2 -8 -20 -13 -45 -13 -33 0
-47 -6 -75 -34 -30 -30 -34 -40 -34 -86 0 -44 4 -56 29 -81 24 -24 38 -29 76
-29 40 0 46 -3 41 -17 -11 -36 -26 -127 -26 -160 l0 -34 -32 25 c-78 58 -216
60 -346 5 -41 -18 -44 -18 -37 -2 17 42 17 141 1 191 -21 61 -83 135 -140 164
-146 76 -430 -56 -492 -229 -28 -79 -7 -206 61 -378 81 -204 156 -315 222
-328 67 -13 158 34 191 99 l18 35 21 -45 c44 -90 127 -128 278 -127 155 1 262
36 323 106 27 30 32 44 32 84 0 43 -4 53 -31 75 -40 34 -72 33 -156 -5 -83
-37 -187 -49 -218 -25 -19 14 -17 15 30 16 155 1 284 83 301 192 7 38 7 38 26
21 15 -14 37 -18 87 -18 l68 0 -18 -40 c-10 -22 -19 -63 -19 -92 0 -76 39
-122 159 -187 52 -28 96 -57 99 -63 8 -27 -56 -12 -124 29 -51 31 -83 43 -121
46 -48 4 -55 2 -83 -26 -26 -26 -30 -38 -30 -84 0 -69 25 -109 92 -151 l51
-32 -59 -6 c-68 -6 -94 -18 -123 -55 -12 -15 -23 -25 -24 -23 -2 2 -9 17 -15
33 -11 25 -10 30 8 43 24 17 28 74 6 92 -8 7 -30 15 -49 18 -29 4 -40 1 -62
-21 -30 -30 -35 -32 -35 -11 0 9 -11 27 -25 40 -28 28 -89 34 -120 12 -15 -12
-21 -11 -37 5 -23 23 -40 23 -67 1 -20 -17 -28 -46 -47 -168 -6 -38 -7 -39
-16 -15 -23 60 -79 79 -118 40 -16 -16 -20 -33 -20 -94 0 -82 -6 -106 -25
-106 -12 0 -25 70 -25 143 0 49 -30 81 -71 75 l-29 -5 20 22 c13 14 20 35 20
62 0 68 -49 94 -175 96 -96 1 -140 -18 -161 -68 -23 -55 7 -105 63 -105 37 0
39 -7 18 -65 -8 -22 -14 -63 -15 -92 0 -44 4 -55 26 -72 56 -44 143 -10 145
56 2 52 -3 103 -11 133 -8 29 -8 30 26 30 34 0 35 -1 20 -22 -22 -32 -22 -193
0 -248 27 -67 97 -89 161 -50 32 19 33 19 43 0 11 -21 63 -28 87 -12 21 13 33
62 33 133 l0 70 26 -20 c33 -26 45 -26 76 -1 21 16 27 32 33 87 4 36 9 72 12
80 7 17 33 17 34 1 0 -7 1 -49 2 -93 2 -77 3 -80 29 -89 23 -8 33 -6 56 11
l27 20 -3 -74 c-5 -91 11 -123 62 -123 35 0 58 19 75 60 l10 25 0 -28 c1 -16
12 -39 26 -52 l24 -25 -25 0 c-14 0 -23 -3 -21 -7 3 -5 -9 -9 -26 -10 -22 -1
-64 15 -132 50 -87 45 -101 56 -106 82 -3 17 -10 29 -17 28 -7 -2 -11 2 -9 9
1 6 -11 16 -26 22 -39 14 -78 -9 -92 -54 -5 -19 -18 -47 -28 -62 -21 -30 -20
-85 1 -80 8 1 11 -2 7 -8 -3 -5 5 -15 19 -22 20 -9 35 -8 67 2 38 13 43 12
105 -18 36 -18 70 -29 76 -26 6 4 8 3 5 -3 -3 -5 9 -17 28 -26 26 -13 35 -23
35 -42 0 -30 29 -62 65 -71 33 -8 73 18 81 54 3 15 8 34 11 42 4 8 5 18 5 23
-1 4 4 6 10 5 19 -4 22 59 5 85 -14 22 -14 22 67 22 61 0 87 5 108 18 l26 18
0 -84 c0 -91 10 -122 43 -132 65 -21 101 30 107 155 3 71 0 91 -17 124 -16 31
-18 42 -8 48 21 13 27 9 27 -18 0 -16 13 -39 34 -60 31 -31 39 -34 95 -34 79
0 135 23 151 61 11 25 10 32 -5 49 -10 11 -24 20 -32 20 -12 0 -11 4 1 22 9
12 16 35 16 51 0 33 -40 77 -70 77 -26 0 -26 12 1 36 56 51 86 181 56 241 -26
49 -70 85 -164 133 -53 27 -89 52 -91 63 -5 28 39 21 112 -17 99 -52 129 -60
172 -46 64 22 94 112 60 179 -64 123 -345 193 -485 122 -40 -21 -43 -21 -36
-4 17 42 16 94 -4 190 -12 55 -21 104 -21 107 0 3 17 6 38 6 91 0 147 69 123
151 -12 41 -39 60 -103 73 -22 5 -28 13 -33 44 -12 65 -16 74 -51 88 -44 18
-62 18 -104 -4z m114 -34 c9 -12 16 -34 16 -48 0 -39 25 -67 66 -73 53 -9 74
-32 74 -83 0 -57 -32 -84 -101 -84 -63 0 -73 -17 -53 -91 8 -30 17 -93 21
-141 l6 -87 -32 -32 c-29 -28 -36 -31 -78 -26 -31 3 -54 13 -72 31 -25 26 -26
31 -26 139 0 96 3 118 22 154 25 48 19 57 -24 41 -16 -6 -45 -8 -66 -4 -50 9
-71 43 -64 98 7 56 36 82 91 84 58 2 62 6 70 56 10 60 39 88 92 88 33 0 46 -5
58 -22z m-759 -188 c76 -47 134 -169 121 -252 -18 -110 -108 -196 -238 -229
-29 -7 -48 -17 -48 -25 0 -8 5 -14 10 -14 17 0 90 -121 106 -177 22 -74 7
-115 -54 -154 -103 -65 -167 -27 -256 154 -115 233 -154 423 -106 521 28 59
97 119 185 161 85 40 102 44 182 40 43 -2 73 -10 98 -25z m465 -328 c50 -25
80 -74 80 -134 0 -59 -17 -94 -65 -136 -56 -50 -189 -78 -267 -57 -24 6 -28 4
-28 -13 0 -82 138 -100 281 -36 75 34 116 35 141 5 40 -50 7 -127 -72 -168
-109 -56 -321 -69 -407 -25 -137 71 -176 291 -78 439 62 94 164 142 300 143
57 0 90 -5 115 -18z m670 -123 c122 -42 171 -89 173 -165 0 -33 -6 -51 -23
-69 -34 -36 -76 -32 -168 14 -103 53 -123 57 -152 33 -39 -31 -18 -56 94 -115
128 -67 161 -105 159 -184 -4 -164 -135 -231 -338 -173 -154 44 -233 104 -242
184 -5 41 -2 48 26 77 28 27 37 31 68 26 19 -4 62 -22 93 -41 110 -65 160 -71
168 -19 4 25 -17 43 -103 88 -107 56 -155 110 -155 173 0 41 47 128 82 153 74
53 193 60 318 18z m-1136 -41 c-9 -17 -19 -63 -23 -102 l-6 -71 -42 77 c-24
42 -43 80 -43 83 0 3 8 5 18 5 9 0 35 9 57 19 55 26 58 26 39 -11z m-224 -461
c41 -14 57 -49 41 -89 -9 -24 -16 -28 -51 -28 -33 0 -42 4 -52 25 -6 14 -15
25 -20 25 -11 0 -10 -57 1 -64 17 -11 35 -144 25 -184 -9 -35 -11 -37 -54 -40
-50 -4 -70 13 -70 60 0 35 40 158 51 158 5 0 9 14 9 32 l0 31 -23 -21 c-41
-39 -107 -23 -107 26 1 33 19 58 51 71 34 14 157 12 199 -2z m445 -36 c3 -10
3 -25 -1 -34 -3 -8 -1 -24 5 -34 12 -23 -4 -160 -22 -181 -18 -22 -61 -10 -71
21 -14 39 8 204 30 228 22 24 51 24 59 0z m146 -10 c27 -27 29 -35 29 -106 0
-95 -19 -145 -54 -145 -36 0 -41 15 -38 108 3 70 1 83 -14 89 -9 3 -26 1 -37
-6 -18 -12 -19 -11 -13 16 9 34 24 53 51 63 34 14 45 11 76 -19z m169 -36 c6
-8 10 -22 8 -32 -3 -14 -13 -18 -48 -18 -46 0 -60 15 -46 51 7 19 70 18 86 -1z
m-73 -80 c0 0 -10 -13 -23 -30 l-24 -30 0 49 0 49 23 -19 c12 -10 23 -19 24
-19z m-413 -8 c33 -24 47 -185 23 -257 -21 -62 -84 -47 -72 18 6 31 5 33 -14
23 -11 -6 -22 -19 -25 -29 -8 -24 -48 -45 -87 -45 -59 0 -88 58 -89 180 0 86
12 113 49 113 40 0 51 -23 51 -109 0 -58 4 -75 20 -91 16 -16 25 -18 40 -10
30 16 33 27 34 117 1 63 5 86 16 93 20 13 33 12 54 -3z m758 -24 c10 -9 18
-26 16 -37 -3 -19 -10 -21 -68 -22 -90 -1 -92 -1 -88 -26 2 -18 13 -25 53 -34
68 -15 94 -30 101 -59 17 -67 -27 -109 -115 -110 -75 0 -107 10 -127 41 -16
23 -16 27 -1 41 14 14 23 15 73 4 60 -14 79 -7 72 25 -2 13 -20 22 -61 32 -83
21 -107 67 -65 125 34 45 168 59 210 20z m118 1 c36 -7 78 -14 94 -14 l30 0
-27 -28 c-15 -15 -27 -34 -27 -42 0 -9 -7 -6 -23 8 -28 27 -92 30 -119 5 -27
-24 -23 -68 8 -90 l25 -19 -20 -18 c-21 -19 -21 -19 -21 11 0 40 -37 73 -102
89 l-53 14 57 -6 c71 -7 98 6 98 47 0 17 -5 40 -11 51 -10 18 -9 20 7 14 11
-4 48 -14 84 -22z m-412 -6 c7 -7 12 -41 12 -82 0 -117 -27 -181 -74 -174 -31
4 -41 58 -26 146 16 97 54 144 88 110z m668 -14 c12 -3 26 -15 31 -27 21 -46
-24 -97 -87 -97 l-35 0 35 18 c66 33 44 101 -24 71 -29 -14 -43 -46 -27 -62 7
-7 7 -14 0 -23 -7 -9 -7 -19 1 -34 10 -19 18 -21 58 -17 26 3 62 9 80 12 28 6
32 5 32 -14 0 -43 -105 -74 -175 -51 -63 21 -85 108 -42 171 31 46 96 68 153
53z m-242 -60 c23 -9 20 -51 -5 -64 -28 -16 -65 -5 -72 20 -9 36 33 61 77 44z
m204 -6 c-3 -7 -17 -15 -33 -16 -25 -3 -27 -2 -16 12 16 19 55 22 49 4z m-538
-67 l35 -21 -35 0 c-20 0 -41 -5 -48 -12 -9 -9 -12 -8 -12 8 0 31 12 67 19 56
3 -5 22 -19 41 -31z m-359 -21 c4 -8 12 -29 19 -46 9 -25 28 -38 120 -82 111
-53 138 -60 157 -41 6 6 23 9 39 7 24 -2 30 -8 32 -34 2 -24 -3 -35 -21 -47
-19 -12 -23 -22 -19 -45 3 -23 -1 -33 -17 -42 -34 -18 -58 -3 -73 43 -12 40
-18 44 -118 94 -102 50 -152 63 -165 43 -9 -14 -48 -13 -63 2 -19 19 -14 56
10 73 14 9 23 27 24 46 1 17 8 35 15 40 20 13 51 7 60 -11z m442 -7 c-7 -2
-19 -2 -25 0 -7 3 -2 5 12 5 14 0 19 -2 13 -5z m251 -35 c18 -26 22 -170 6
-212 -13 -36 -48 -52 -68 -32 -33 33 -27 194 9 240 25 32 33 32 53 4z"/>
<path d="M558 1660 c-108 -57 -103 -220 7 -220 119 0 194 138 117 215 -30 30
-72 32 -124 5z m107 -25 c29 -28 32 -63 10 -105 -16 -31 -80 -70 -114 -70 -23
0 -61 45 -61 72 0 56 63 117 133 127 4 0 19 -10 32 -24z"/>
<path d="M1050 1367 c-46 -16 -63 -27 -83 -57 -38 -55 -9 -100 63 -100 46 0
103 29 120 60 35 66 -23 122 -100 97z m66 -25 c25 -17 24 -44 -5 -72 -52 -53
-131 -53 -131 -1 0 15 8 35 18 44 33 30 94 46 118 29z"/>
<path d="M1911 1819 c-40 -43 -35 -119 8 -119 25 0 60 40 67 78 12 57 -36 83
-75 41z"/>
<path d="M1776 1755 c-34 -51 -2 -126 42 -99 9 6 23 23 30 38 31 63 -34 119
-72 61z"/>
<path d="M2020 1741 c-58 -58 -25 -131 39 -84 35 27 57 72 44 92 -17 28 -51
25 -83 -8z"/>
<path d="M1863 1655 c-12 -9 -41 -22 -65 -31 -55 -19 -78 -41 -78 -74 0 -33
23 -55 79 -75 23 -8 61 -30 83 -50 50 -42 61 -43 95 -9 23 23 25 30 19 77 -4
29 -7 71 -6 94 1 30 -5 48 -20 63 -24 24 -76 27 -107 5z"/>
<path d="M2070 1622 c-30 -9 -60 -46 -60 -74 0 -53 80 -45 110 12 21 39 -9 75
-50 62z"/>
</g>
</svg>
